<svg width="221" height="56" viewBox="0 0 221 56" fill="none" xmlns="http://www.w3.org/2000/svg">
<path d="M27.9188 14.9261V40.9658H32.6013V14.9261H27.9188ZM23.9968 28.5103H36.7234V30.1227H23.9968V28.5103ZM23.9968 24.1569H36.7234V25.729H23.9968V24.1569ZM20.1147 21.1741V33.0652H40.7655V21.1741H20.1147ZM17.9536 10.2906V18.1106H22.3559V13.8378H37.6839V18.1106H42.2863V10.2906H17.9536ZM21.2353 16.3773V19.7229H39.2848V16.3773H21.2353ZM18.4338 34.7582V38.3457H42.7666V34.7582H18.4338ZM7.82829 11.1774C9.50917 13.1929 11.6703 16.0145 12.6708 17.7478L16.4328 15.168C15.3522 13.5153 13.2311 10.9759 11.4302 9.04102L7.82829 11.1774ZM6.86778 18.5137V22.3833H15.2322V18.5137H6.86778ZM14.992 35.9675L11.7904 37.2574C14.7519 44.9967 19.7145 46.206 28.9994 46.206C33.6818 46.206 38.8045 46.1254 43.0067 45.8432C43.2468 44.5533 43.8472 42.3766 44.5275 41.4092C39.9651 41.8526 33.3617 42.0945 29.0794 42.0945C21.8356 42.0542 17.1132 41.4092 14.992 35.9675ZM13.3912 28.2282V28.9537C12.5107 36.0078 9.98942 41.0868 6.02734 43.7875C6.94783 44.4324 8.50864 46.0851 9.14898 47.0122C13.3912 43.8278 16.4328 37.7814 17.5934 28.9537L15.5924 28.1475L14.832 28.2282H13.3912ZM7.62818 32.6218C7.94835 32.2591 9.10896 31.9769 10.0695 31.9769H15.2322V28.2282H9.34908L7.62818 29.1553V32.6218ZM7.62818 32.6218C7.62818 31.5335 10.8299 29.9614 10.8299 29.9614C13.071 27.3414 16.4728 22.343 18.3138 19.5617L15.3923 18.2315L14.1916 18.7555V18.8764C12.8309 21.0934 9.30906 26.253 8.14845 27.3817C7.38806 28.2282 6.74772 28.5103 6.06736 28.6716C6.5076 29.5584 7.34804 31.6141 7.62818 32.6218Z" fill="#575F9E"/>
<path d="M50.7308 35.121V38.5473H69.4206V35.121H50.7308ZM49.8103 15.9339V19.4408H69.8208V15.9339H49.8103ZM57.7745 13.0719V41.9736H62.0967V13.0719H57.7745ZM49.6102 41.5302L50.1705 45.5611C55.3732 45.0774 62.657 44.3518 69.4606 43.6262L69.4206 39.9581C62.2168 40.603 54.5728 41.1674 49.6102 41.5302ZM54.6928 28.6716H65.2584V30.5258H54.6928V28.6716ZM54.6928 24.036H65.2584V25.8499H54.6928V24.036ZM50.8508 21.0128V33.549H69.2205V21.0128H50.8508ZM67.2594 9.24256C62.8571 10.21 55.8935 10.9355 49.9303 11.2177C50.3706 12.1448 50.8108 13.6766 50.9709 14.644C56.974 14.5231 64.2579 13.9184 69.3805 12.8704L67.2594 9.24256ZM69.8208 18.1509V22.5849H83.668V18.1509H69.8208ZM81.747 18.1509V19.1989C81.4268 34.7985 81.1067 40.4821 80.1862 41.6914C79.826 42.2557 79.4258 42.3767 78.8255 42.3767C78.0251 42.3767 76.5043 42.3766 74.7834 42.2154C75.5438 43.5053 76.064 45.4805 76.1841 46.8107C78.0651 46.8913 79.9461 46.8913 81.1867 46.6494C82.5074 46.4076 83.4279 45.9642 84.3084 44.5937C85.629 42.7797 85.9492 36.8946 86.3094 20.2873C86.3094 19.7229 86.3494 18.1509 86.3494 18.1509H81.747ZM73.6628 9.72627C73.6228 25.8096 74.063 37.0962 65.6186 43.5859C66.6991 44.3921 68.2599 46.0448 68.9403 47.2137C78.1851 39.8775 78.2252 26.9383 78.2652 9.72627H73.6628Z" fill="#575F9E"/>
<path d="M104.559 20.4082V24.9228H115.965V20.4082H104.559ZM108.841 12.427V46.8913H112.923V12.427H108.841ZM114.484 9.44411C111.923 10.5728 107.841 11.5805 104.199 12.1448C104.719 13.1122 105.279 14.6843 105.439 15.6517C109.361 15.168 113.924 14.3618 117.486 13.0316L114.484 9.44411ZM108.201 22.5043C107.4 27.3414 105.279 33.3474 102.958 36.7737C103.679 37.9023 104.719 39.7163 105.119 41.0465C107.841 37.0155 109.962 29.4374 111.002 23.3507L108.201 22.5043ZM112.763 25.8499L111.202 28.0266C112.123 29.6793 114.244 33.7505 115.044 35.8869L117.086 31.8157C116.485 30.9289 113.524 26.7367 112.763 25.8499ZM127.051 16.337C126.811 19.7229 126.13 24.6003 125.49 27.5832L128.411 28.2685C129.172 25.4065 129.972 20.8113 130.613 16.9819L127.051 16.337ZM120.807 9.56503V20.2873C120.807 27.5026 120.207 36.6124 114.724 43.4247C115.605 44.1502 116.925 45.8835 117.526 46.9316C124.129 39.031 124.85 28.7522 124.85 20.2873V9.56503H120.807ZM124.529 23.1895L121.248 23.4717C121.928 33.428 123.289 42.1348 127.851 46.6091C128.451 45.4401 129.852 43.6665 130.773 42.8604C126.611 39.3938 125.21 31.5335 124.529 23.1895ZM115.485 17.1835C116.365 20.8516 117.326 25.729 117.646 28.5103L120.848 27.5026C120.447 24.8019 119.367 20.0857 118.406 16.4579L115.485 17.1835ZM92.4726 29.1956L93.5532 33.8311C96.7949 32.8637 100.837 31.6544 104.599 30.4855L103.959 26.1321C99.7965 27.301 95.4342 28.5103 92.4726 29.1956ZM93.073 16.6997V21.1337H103.879V16.6997H93.073ZM96.995 9.04102V42.0139C96.995 42.5379 96.8349 42.6991 96.3547 42.6991C95.9144 42.7394 94.5137 42.7394 93.113 42.6991C93.6733 43.8681 94.1935 45.7626 94.3136 46.8913C96.7949 46.8913 98.4758 46.73 99.5964 46.0448C100.757 45.3192 101.117 44.1503 101.117 42.0542V9.04102H96.995Z" fill="#575F9E"/>
<path d="M143.659 16.0548V18.7152H165.791V16.0548H143.659ZM143.139 32.904V35.5241H166.351V32.904H143.139ZM146.861 36.6931C147.902 37.8217 149.062 39.3535 149.583 40.3612L152.784 38.7488C152.224 37.7411 150.943 36.2497 149.863 35.2419L146.861 36.6931ZM148.422 24.9228H160.949V26.1724H148.422V24.9228ZM148.422 21.8593H160.949V23.0283H148.422V21.8593ZM144.78 19.8842V28.1475H164.75V19.8842H144.78ZM157.227 31.735V37.9023C157.227 38.2651 157.066 38.386 156.706 38.386C156.306 38.4264 154.945 38.4264 153.825 38.386C154.185 39.0713 154.625 39.9581 154.785 40.8449C157.026 40.8449 158.627 40.8449 159.708 40.4821C160.868 40.1193 161.189 39.6356 161.189 38.0636V31.735H157.227ZM143.78 29.4777L143.94 32.0575C149.102 31.9769 156.266 31.7754 163.19 31.5335L163.31 29.3971C156.106 29.4777 148.702 29.518 143.78 29.4777ZM159.428 29.0746C160.868 30.2033 162.669 31.9769 163.55 33.1862L166.071 31.2916C165.191 30.2033 163.39 28.5506 161.829 27.4623L159.428 29.0746ZM152.704 14.6037V30.4855L156.626 30.3242V14.6037H152.704ZM138.016 10.3712V46.8913H142.379V14.0393H167.232V46.8107H171.794V10.3712H138.016ZM140.138 41.248V44.9161H169.073V41.248H140.138Z" fill="#575F9E"/>
<path d="M207.213 15.8129C206.933 17.7075 206.252 20.5291 205.692 22.343L208.373 23.1089C209.014 21.4562 209.734 18.9167 210.494 16.6191L207.213 15.8129ZM200.209 16.6191C200.929 18.3121 201.57 20.5694 201.73 22.0609L204.611 21.0531C204.371 19.602 203.691 17.385 202.93 15.7323L200.209 16.6191ZM194.526 10.7743V46.9316H198.808V14.9665H212.936V10.7743H194.526ZM211.695 10.7743V42.1348C211.695 42.6588 211.535 42.8201 211.015 42.8604C210.494 42.8604 208.974 42.9007 207.573 42.82C208.133 43.9084 208.654 45.7626 208.774 46.8913C211.335 46.8913 213.096 46.8107 214.377 46.1254C215.617 45.3998 215.977 44.3115 215.977 42.1751V10.7743H211.695ZM199.529 21.8593V25.4871H210.895V21.8593H199.529ZM199.689 28.8731V32.5009H210.735V28.8731H199.689ZM202.77 26.253C203.251 27.2607 203.771 28.6716 204.011 29.5584L207.413 28.3088C207.173 27.4623 206.572 26.1724 206.052 25.205L202.77 26.253ZM188.923 26.2127C189.844 28.6716 190.924 31.9769 191.284 33.952L194.646 32.5412C194.126 30.687 193.005 27.4623 192.005 25.0437L188.923 26.2127ZM185.001 36.169C185.401 38.8698 185.802 42.3767 185.842 44.7146L189.203 43.8278C189.043 41.4899 188.643 38.0636 188.123 35.4032L185.001 36.169ZM180.639 35.645C180.439 38.9101 179.998 42.5379 179.118 44.8758C179.998 45.1177 181.639 45.682 182.44 46.1254C183.24 43.6262 183.841 39.8372 184.121 36.2497L180.639 35.645ZM180.559 25.0437C180.559 24.2779 182.92 22.9477 182.92 22.9477V22.867C185.401 19.7229 188.003 15.0874 189.804 10.7743L185.962 9.12163C184.641 13.3944 182.2 17.8687 181.399 19.0377C180.639 20.2066 179.958 20.9725 179.238 21.1741C179.718 22.2624 180.359 24.2375 180.559 25.0437ZM180.559 25.0437C181.279 24.681 182.48 24.3988 188.523 23.7941C188.563 22.9073 188.723 21.3756 188.963 20.2873L182.24 20.771L180.479 21.9802L180.559 25.0437ZM180.839 34.3954C180.839 33.6296 183.24 32.3397 183.24 32.3397V32.2591C187.002 28.1475 190.924 22.4639 193.686 16.9819L190.204 14.6843C187.803 20.3679 183.841 26.253 182.56 27.7444C181.319 29.2762 180.519 30.2436 179.558 30.4855C179.998 31.5738 180.679 33.5893 180.839 34.3954ZM180.839 34.3954C181.719 33.9117 183.2 33.5086 192.405 32.0575C192.365 31.211 192.445 29.639 192.565 28.5909L182.4 30.0018L180.679 31.2513L180.839 34.3954ZM189.243 35.2419C190.044 37.6605 190.964 40.8852 191.324 43.0216L194.446 41.8123C194.006 39.7566 193.085 36.6528 192.205 34.1939L189.243 35.2419ZM200.889 30.8482V34.9195C200.889 38.1442 201.61 39.4744 205.012 39.4744C205.612 39.4744 207.693 39.4744 208.373 39.4744C209.254 39.4744 210.294 39.4341 210.855 39.2325C210.735 38.3054 210.655 36.9349 210.575 35.9272C209.974 36.1287 208.894 36.169 208.253 36.169C207.733 36.169 205.932 36.169 205.452 36.169C204.811 36.169 204.691 35.8466 204.691 34.9598V30.8482H200.889Z" fill="#575F9E"/>
</svg>
