<svg width="24" height="24" viewBox="0 0 24 24" fill="none" xmlns="http://www.w3.org/2000/svg">
<path d="M11.9998 17.3L8.29982 20.125C8.11649 20.275 7.91649 20.3456 7.69982 20.337C7.48315 20.329 7.29149 20.2666 7.12482 20.15C6.95815 20.0333 6.82915 19.875 6.73782 19.675C6.64582 19.475 6.64149 19.2583 6.72482 19.025L8.14982 14.4L4.52482 11.825C4.32482 11.6916 4.19982 11.5166 4.14982 11.3C4.09982 11.0833 4.10815 10.8833 4.17482 10.7C4.24149 10.5166 4.35815 10.354 4.52482 10.212C4.69149 10.0706 4.89149 9.99998 5.12482 9.99998H9.59982L11.0498 5.19998C11.1332 4.96664 11.2625 4.78731 11.4378 4.66198C11.6125 4.53731 11.7998 4.47498 11.9998 4.47498C12.1998 4.47498 12.3872 4.53731 12.5618 4.66198C12.7372 4.78731 12.8665 4.96664 12.9498 5.19998L14.3998 9.99998H18.8748C19.1082 9.99998 19.3082 10.0706 19.4748 10.212C19.6415 10.354 19.7582 10.5166 19.8248 10.7C19.8915 10.8833 19.8998 11.0833 19.8498 11.3C19.7998 11.5166 19.6748 11.6916 19.4748 11.825L15.8498 14.4L17.2748 19.025C17.3582 19.2583 17.3542 19.475 17.2628 19.675C17.1708 19.875 17.0415 20.0333 16.8748 20.15C16.7082 20.2666 16.5165 20.329 16.2998 20.337C16.0832 20.3456 15.8832 20.275 15.6998 20.125L11.9998 17.3Z" fill="#B3B5E8"/>
</svg>
